Coordinates
version=1
nRows=12
nColumns=24
inDegrees=yes

Units are S.I. units (second, meters, Newtons, ...)
Angles are in degrees.

endheader
time	pelvis_tilt	pelvis_list	pelvis_rotation	pelvis_tx	pelvis_ty	pelvis_tz	hip_flexion_r	hip_adduction_r	hip_rotation_r	knee_angle_r	ankle_angle_r	subtalar_angle_r	mtp_angle_r	hip_flexion_l	hip_adduction_l	hip_rotation_l	knee_angle_l	ankle_angle_l	subtalar_angle_l	mtp_angle_l	lumbar_extension	lumbar_bending	lumbar_rotation
      3.58000000	    -15.26947299	    -10.44316169	      8.33502269	     -0.76788085	     -0.02826386	      0.00279302	     33.81415014	      7.42076692	    -12.96402159	    -18.34970753	     -7.61088396	      1.51105271	      9.05059752	     16.85046308	    -16.44024550	     -7.92877766	    -57.12867578	    -30.80697613	     13.58995433	     25.80988044	     13.78668283	      9.70522778	     -6.89914673
      3.58500000	    -15.20863679	    -10.39124191	      8.33299598	     -0.76183967	     -0.02694380	      0.00298350	     33.15570054	      7.50855259	    -13.02577043	    -17.94851214	     -7.44963022	      1.71676182	      9.40817038	     17.70040128	    -16.32799499	     -7.62063611	    -58.16846156	    -29.94228619	     12.48982825	     25.36556272	     13.73303040	      9.67133054	     -6.75698092
      3.59000000	    -15.09496220	    -10.31743634	      8.23724558	     -0.75575763	     -0.02559611	      0.00333397	     32.42556393	      7.65864046	    -12.89966289	    -17.53093477	     -7.29293585	      1.82933378	      9.67567016	     18.42293960	    -16.24881745	     -7.44982876	    -59.11113814	    -29.05952431	     11.69354913	     24.98178356	     13.60736858	      9.64584141	     -6.53176558
      3.59500000	    -14.98369075	    -10.25958521	      8.11212912	     -0.74960873	     -0.02424727	      0.00373371	     31.67834546	      7.84363812	    -12.74131568	    -17.08144670	     -7.13819208	      1.95400799	      9.80167067	     19.11944312	    -16.19938876	     -7.31009198	    -59.94368225	    -28.29869840	     11.05416747	     24.85277089	     13.49921889	      9.64267017	     -6.24282487
      3.60000000	    -14.86175897	    -10.13894009	      7.99063450	     -0.74352701	     -0.02286937	      0.00411021	     30.91298457	      7.96613759	    -12.54219454	    -16.63507123	     -6.99397133	      2.04183290	      9.91718373	     19.77515174	    -16.06515290	     -7.18851620	    -60.69308705	    -27.51660198	     10.53546333	     24.67264836	     13.36623924	      9.57253678	     -5.98114931
      3.60500000	    -14.73815974	    -10.00090138	      7.83724214	     -0.73744483	     -0.02150637	      0.00453106	     30.13620297	      8.08847636	    -12.29817352	    -16.17800202	     -6.85674039	      2.11252744	     10.02307012	     20.39524589	    -15.91949687	     -7.09931159	    -61.35593833	    -26.74857723	     10.22854135	     24.58190295	     13.22686907	      9.49104396	     -5.68245025
      3.61000000	    -14.67951130	     -9.84065648	      7.70394214	     -0.73148564	     -0.02023486	      0.00494161	     29.44806283	      8.15386332	    -12.11068156	    -15.75658744	     -6.69567001	      2.21832055	     10.04996717	     21.09222860	    -15.71204677	     -6.95534303	    -61.93006343	    -26.11248472	     10.01870278	     24.83391569	     13.14491667	      9.36434008	     -5.39363583
      3.61500000	    -14.50891035	     -9.66498487	      7.48860987	     -0.72535480	     -0.01882363	      0.00544591	     28.57830530	      8.29176782	    -11.67645149	    -15.23617063	     -6.61540211	      2.14081087	     10.08254180	     21.57972900	    -15.55930891	     -6.97661594	    -62.40375747	    -25.39426499	      9.98524923	     24.93571621	     12.95769433	      9.26519380	     -5.03734623
      3.62000000	    -14.40148176	     -9.46891353	      7.31883560	     -0.71938450	     -0.01750856	      0.00589169	     27.79768230	      8.35746572	    -11.32435831	    -14.74902908	     -6.51078291	      2.10267454	     10.08120636	     22.16065759	    -15.33152803	     -6.91541114	    -62.81281599	    -24.75620715	     10.01795858	     25.23859844	     12.82442140	      9.11927019	     -4.72260821
      3.62500000	    -14.29245812	     -9.26176157	      7.11616724	     -0.71339202	     -0.01620436	      0.00638562	     27.00037040	      8.42826033	    -10.91452596	    -14.24126880	     -6.42347025	      2.02491472	     10.03830790	     22.70304485	    -15.10587522	     -6.90576504	    -63.13343882	    -24.13824745	     10.13412286	     25.64189449	     12.69205715	      8.96729796	     -4.37910166
      3.63000000	    -14.16511638	     -9.04425668	      6.90630601	     -0.70750338	     -0.01490093	      0.00689737	     26.18466151	      8.49328568	    -10.45064265	    -13.72717287	     -6.36633223	      1.87243315	      9.93436610	     23.21659427	    -14.86925985	     -6.90768953	    -63.38553756	    -23.54290044	     10.31107142	     26.12519506	     12.52147058	      8.80843994	     -4.00797780
      3.63500000	    -14.08067654	     -8.79555780	      6.69989106	     -0.70149835	     -0.01365939	      0.00740534	     25.38994274	      8.50981728	    -10.00275360	    -13.19242652	     -6.26444355	      1.76152657	      9.83053621	     23.74043491	    -14.59119862	     -6.93510108	    -63.55042912	    -22.94917445	     10.54784155	     26.60431762	     12.42768210	      8.60120931	     -3.69715702
